<svg xmlns="http://www.w3.org/2000/svg" viewBox="0 0 100 100" width="32" height="32">
  <defs>
    <linearGradient id="brandGradient" x1="0%" y1="0%" x2="100%" y2="100%">
      <stop offset="0%" style="stop-color:#667eea;stop-opacity:1" />
      <stop offset="100%" style="stop-color:#764ba2;stop-opacity:1" />
    </linearGradient>
  </defs>
  
  <!-- Background circle -->
  <circle cx="50" cy="50" r="45" fill="url(#brandGradient)" />
  
  <!-- DNA double helix structure -->
  <path d="M30 35 Q50 25 70 35 Q50 45 30 35 
           M30 50 Q50 40 70 50 Q50 60 30 50 
           M30 65 Q50 55 70 65 Q50 75 30 65" 
        stroke="white" 
        stroke-width="3" 
        fill="none" 
        opacity="0.9"/>
  
  <!-- DNA base pairs (dots) -->
  <circle cx="35" cy="35" r="3" fill="white" opacity="0.8"/>
  <circle cx="65" cy="35" r="3" fill="white" opacity="0.8"/>
  <circle cx="35" cy="50" r="3" fill="white" opacity="0.8"/>
  <circle cx="65" cy="50" r="3" fill="white" opacity="0.8"/>
  <circle cx="35" cy="65" r="3" fill="white" opacity="0.8"/>
  <circle cx="65" cy="65" r="3" fill="white" opacity="0.8"/>
  
  <!-- Central connecting lines -->
  <line x1="35" y1="35" x2="65" y2="35" stroke="white" stroke-width="2" opacity="0.6"/>
  <line x1="35" y1="50" x2="65" y2="50" stroke="white" stroke-width="2" opacity="0.6"/>
  <line x1="35" y1="65" x2="65" y2="65" stroke="white" stroke-width="2" opacity="0.6"/>
</svg> 